<mxfile host="Electron" agent="Mozilla/5.0 (Macintosh; Intel Mac OS X 10_15_7) AppleWebKit/537.36 (KHTML, like Gecko) draw.io/26.1.1 Chrome/132.0.6834.210 Electron/34.3.3 Safari/537.36" version="26.1.1">
  <diagram name="Page-1" id="KW4KV1JRnlx-CsQ949Hj">
    <mxGraphModel dx="1363" dy="871" grid="1" gridSize="10" guides="1" tooltips="1" connect="1" arrows="1" fold="1" page="1" pageScale="1" pageWidth="1100" pageHeight="850" math="0" shadow="0">
      <root>
        <mxCell id="0" />
        <mxCell id="1" parent="0" />
        <mxCell id="V9qVlPGY5hBEQCjkdHOu-80" value="" style="group" parent="1" vertex="1" connectable="0">
          <mxGeometry x="20" y="100" width="490" height="430" as="geometry" />
        </mxCell>
        <mxCell id="V9qVlPGY5hBEQCjkdHOu-74" value="" style="rounded=0;whiteSpace=wrap;html=1;" parent="V9qVlPGY5hBEQCjkdHOu-80" vertex="1">
          <mxGeometry width="490" height="430" as="geometry" />
        </mxCell>
        <mxCell id="V9qVlPGY5hBEQCjkdHOu-75" value="People Counting Integrator System" style="text;html=1;align=center;verticalAlign=middle;whiteSpace=wrap;rounded=0;" parent="V9qVlPGY5hBEQCjkdHOu-80" vertex="1">
          <mxGeometry x="142.5" y="10" width="192.5" height="30" as="geometry" />
        </mxCell>
        <mxCell id="V9qVlPGY5hBEQCjkdHOu-49" value="" style="rounded=0;whiteSpace=wrap;html=1;" parent="1" vertex="1">
          <mxGeometry x="630" y="90" width="440" height="430" as="geometry" />
        </mxCell>
        <mxCell id="s_7Wc5aM7_GYv-c3CfpL-1" style="edgeStyle=orthogonalEdgeStyle;rounded=0;orthogonalLoop=1;jettySize=auto;html=1;exitX=0;exitY=0.5;exitDx=0;exitDy=0;" parent="1" source="V9qVlPGY5hBEQCjkdHOu-17" target="V9qVlPGY5hBEQCjkdHOu-25" edge="1">
          <mxGeometry relative="1" as="geometry">
            <Array as="points">
              <mxPoint x="570" y="385" />
              <mxPoint x="570" y="315" />
            </Array>
          </mxGeometry>
        </mxCell>
        <mxCell id="s_7Wc5aM7_GYv-c3CfpL-2" value="Push counts to&lt;div&gt;ingest route&lt;/div&gt;" style="edgeLabel;html=1;align=center;verticalAlign=middle;resizable=0;points=[];" parent="s_7Wc5aM7_GYv-c3CfpL-1" vertex="1" connectable="0">
          <mxGeometry x="0.1245" y="2" relative="1" as="geometry">
            <mxPoint as="offset" />
          </mxGeometry>
        </mxCell>
        <mxCell id="V9qVlPGY5hBEQCjkdHOu-17" value="" style="rounded=0;whiteSpace=wrap;html=1;" parent="1" vertex="1">
          <mxGeometry x="745" y="280" width="150" height="210" as="geometry" />
        </mxCell>
        <mxCell id="V9qVlPGY5hBEQCjkdHOu-47" style="edgeStyle=orthogonalEdgeStyle;rounded=0;orthogonalLoop=1;jettySize=auto;html=1;exitX=0;exitY=0.5;exitDx=0;exitDy=0;exitPerimeter=0;" parent="1" source="V9qVlPGY5hBEQCjkdHOu-4" target="V9qVlPGY5hBEQCjkdHOu-5" edge="1">
          <mxGeometry relative="1" as="geometry" />
        </mxCell>
        <mxCell id="V9qVlPGY5hBEQCjkdHOu-4" value="Sensor DB&lt;div&gt;(PostgreSQL)&lt;/div&gt;" style="shape=cylinder3;whiteSpace=wrap;html=1;boundedLbl=1;backgroundOutline=1;size=15;fillColor=#d5e8d4;strokeColor=#82b366;" parent="1" vertex="1">
          <mxGeometry x="950" y="150" width="90" height="110" as="geometry" />
        </mxCell>
        <mxCell id="V9qVlPGY5hBEQCjkdHOu-23" style="edgeStyle=orthogonalEdgeStyle;rounded=0;orthogonalLoop=1;jettySize=auto;html=1;exitX=0.5;exitY=1;exitDx=0;exitDy=0;entryX=0.5;entryY=0;entryDx=0;entryDy=0;" parent="1" source="V9qVlPGY5hBEQCjkdHOu-5" target="V9qVlPGY5hBEQCjkdHOu-17" edge="1">
          <mxGeometry relative="1" as="geometry" />
        </mxCell>
        <mxCell id="V9qVlPGY5hBEQCjkdHOu-24" value="Spins up simulation sensors" style="edgeLabel;html=1;align=center;verticalAlign=middle;resizable=0;points=[];" parent="V9qVlPGY5hBEQCjkdHOu-23" vertex="1" connectable="0">
          <mxGeometry x="-0.2105" y="1" relative="1" as="geometry">
            <mxPoint as="offset" />
          </mxGeometry>
        </mxCell>
        <mxCell id="V9qVlPGY5hBEQCjkdHOu-5" value="sensor-api&lt;div&gt;koa.js&lt;/div&gt;" style="shape=process;whiteSpace=wrap;html=1;backgroundOutline=1;fillColor=#ffe6cc;strokeColor=#d79b00;" parent="1" vertex="1">
          <mxGeometry x="760" y="175" width="120" height="60" as="geometry" />
        </mxCell>
        <mxCell id="V9qVlPGY5hBEQCjkdHOu-12" value="" style="group" parent="1" vertex="1" connectable="0">
          <mxGeometry x="785" y="330" width="70" height="40" as="geometry" />
        </mxCell>
        <mxCell id="V9qVlPGY5hBEQCjkdHOu-7" value="" style="rounded=1;whiteSpace=wrap;html=1;" parent="V9qVlPGY5hBEQCjkdHOu-12" vertex="1">
          <mxGeometry width="70" height="40" as="geometry" />
        </mxCell>
        <mxCell id="V9qVlPGY5hBEQCjkdHOu-8" value="" style="ellipse;whiteSpace=wrap;html=1;aspect=fixed;fillColor=#000000;" parent="V9qVlPGY5hBEQCjkdHOu-12" vertex="1">
          <mxGeometry x="10" y="15" width="10" height="10" as="geometry" />
        </mxCell>
        <mxCell id="V9qVlPGY5hBEQCjkdHOu-10" value="" style="ellipse;whiteSpace=wrap;html=1;aspect=fixed;fillColor=#000000;" parent="V9qVlPGY5hBEQCjkdHOu-12" vertex="1">
          <mxGeometry x="50" y="15" width="10" height="10" as="geometry" />
        </mxCell>
        <mxCell id="V9qVlPGY5hBEQCjkdHOu-13" value="" style="group" parent="1" vertex="1" connectable="0">
          <mxGeometry x="785" y="380" width="70" height="40" as="geometry" />
        </mxCell>
        <mxCell id="V9qVlPGY5hBEQCjkdHOu-14" value="" style="rounded=1;whiteSpace=wrap;html=1;" parent="V9qVlPGY5hBEQCjkdHOu-13" vertex="1">
          <mxGeometry width="70" height="40" as="geometry" />
        </mxCell>
        <mxCell id="V9qVlPGY5hBEQCjkdHOu-15" value="" style="ellipse;whiteSpace=wrap;html=1;aspect=fixed;fillColor=#000000;" parent="V9qVlPGY5hBEQCjkdHOu-13" vertex="1">
          <mxGeometry x="10" y="15" width="10" height="10" as="geometry" />
        </mxCell>
        <mxCell id="V9qVlPGY5hBEQCjkdHOu-16" value="" style="ellipse;whiteSpace=wrap;html=1;aspect=fixed;fillColor=#000000;" parent="V9qVlPGY5hBEQCjkdHOu-13" vertex="1">
          <mxGeometry x="50" y="15" width="10" height="10" as="geometry" />
        </mxCell>
        <mxCell id="V9qVlPGY5hBEQCjkdHOu-18" value="" style="group" parent="1" vertex="1" connectable="0">
          <mxGeometry x="785" y="430" width="70" height="40" as="geometry" />
        </mxCell>
        <mxCell id="V9qVlPGY5hBEQCjkdHOu-19" value="" style="rounded=1;whiteSpace=wrap;html=1;" parent="V9qVlPGY5hBEQCjkdHOu-18" vertex="1">
          <mxGeometry width="70" height="40" as="geometry" />
        </mxCell>
        <mxCell id="V9qVlPGY5hBEQCjkdHOu-20" value="" style="ellipse;whiteSpace=wrap;html=1;aspect=fixed;fillColor=#000000;" parent="V9qVlPGY5hBEQCjkdHOu-18" vertex="1">
          <mxGeometry x="10" y="15" width="10" height="10" as="geometry" />
        </mxCell>
        <mxCell id="V9qVlPGY5hBEQCjkdHOu-21" value="" style="ellipse;whiteSpace=wrap;html=1;aspect=fixed;fillColor=#000000;" parent="V9qVlPGY5hBEQCjkdHOu-18" vertex="1">
          <mxGeometry x="50" y="15" width="10" height="10" as="geometry" />
        </mxCell>
        <mxCell id="V9qVlPGY5hBEQCjkdHOu-22" value="People Counting Sensors" style="text;html=1;align=center;verticalAlign=middle;whiteSpace=wrap;rounded=0;" parent="1" vertex="1">
          <mxGeometry x="770" y="290" width="100" height="30" as="geometry" />
        </mxCell>
        <mxCell id="V9qVlPGY5hBEQCjkdHOu-62" style="edgeStyle=orthogonalEdgeStyle;rounded=0;orthogonalLoop=1;jettySize=auto;html=1;exitX=0;exitY=0.5;exitDx=0;exitDy=0;entryX=1;entryY=0.5;entryDx=0;entryDy=0;" parent="1" source="V9qVlPGY5hBEQCjkdHOu-25" target="V9qVlPGY5hBEQCjkdHOu-61" edge="1">
          <mxGeometry relative="1" as="geometry" />
        </mxCell>
        <mxCell id="V9qVlPGY5hBEQCjkdHOu-25" value="people-counting-api&lt;div&gt;koa.js&lt;/div&gt;" style="shape=process;whiteSpace=wrap;html=1;backgroundOutline=1;fillColor=#ffe6cc;strokeColor=#d79b00;" parent="1" vertex="1">
          <mxGeometry x="310" y="285" width="140" height="60" as="geometry" />
        </mxCell>
        <mxCell id="V9qVlPGY5hBEQCjkdHOu-38" value="User" style="shape=umlActor;verticalLabelPosition=bottom;verticalAlign=top;html=1;outlineConnect=0;" parent="1" vertex="1">
          <mxGeometry x="90" y="385" width="30" height="60" as="geometry" />
        </mxCell>
        <mxCell id="V9qVlPGY5hBEQCjkdHOu-46" style="edgeStyle=orthogonalEdgeStyle;rounded=0;orthogonalLoop=1;jettySize=auto;html=1;exitX=0.5;exitY=0;exitDx=0;exitDy=0;exitPerimeter=0;entryX=0.5;entryY=1;entryDx=0;entryDy=0;" parent="1" source="V9qVlPGY5hBEQCjkdHOu-44" target="V9qVlPGY5hBEQCjkdHOu-25" edge="1">
          <mxGeometry relative="1" as="geometry" />
        </mxCell>
        <mxCell id="V9qVlPGY5hBEQCjkdHOu-44" value="People Counting DB&lt;div&gt;(PostgreSQL)&lt;/div&gt;" style="shape=cylinder3;whiteSpace=wrap;html=1;boundedLbl=1;backgroundOutline=1;size=15;fillColor=#d5e8d4;strokeColor=#82b366;" parent="1" vertex="1">
          <mxGeometry x="335" y="385" width="90" height="110" as="geometry" />
        </mxCell>
        <mxCell id="V9qVlPGY5hBEQCjkdHOu-61" value="people-counting-client&lt;div&gt;angular/ ionic&lt;/div&gt;" style="shape=process;whiteSpace=wrap;html=1;backgroundOutline=1;fillColor=#dae8fc;strokeColor=#6c8ebf;" parent="1" vertex="1">
          <mxGeometry x="30" y="280" width="145" height="70" as="geometry" />
        </mxCell>
        <mxCell id="V9qVlPGY5hBEQCjkdHOu-64" style="edgeStyle=orthogonalEdgeStyle;rounded=0;orthogonalLoop=1;jettySize=auto;html=1;exitX=0.5;exitY=1;exitDx=0;exitDy=0;entryX=0.5;entryY=0;entryDx=0;entryDy=0;entryPerimeter=0;" parent="1" source="V9qVlPGY5hBEQCjkdHOu-61" target="V9qVlPGY5hBEQCjkdHOu-38" edge="1">
          <mxGeometry relative="1" as="geometry" />
        </mxCell>
        <mxCell id="V9qVlPGY5hBEQCjkdHOu-72" value="Sensor System" style="text;html=1;align=center;verticalAlign=middle;whiteSpace=wrap;rounded=0;" parent="1" vertex="1">
          <mxGeometry x="752.5" y="100" width="135" height="30" as="geometry" />
        </mxCell>
      </root>
    </mxGraphModel>
  </diagram>
</mxfile>
